<?xml version="1.0" encoding="utf-8"?>
<!-- Generator: Adobe Illustrator 19.1.0, SVG Export Plug-In . SVG Version: 6.00 Build 0)  -->
<svg version="1.1" id="Layer_1" xmlns:sketch="http://www.bohemiancoding.com/sketch/ns"
	 xmlns="http://www.w3.org/2000/svg" xmlns:xlink="http://www.w3.org/1999/xlink" x="0px" y="0px" viewBox="-267 332.2 75.8 128.8"
	 style="enable-background:new -267 332.2 75.8 128.8;" xml:space="preserve">
<style type="text/css">
	.st0{fill:#F47C00;}
	.st1{fill:#5C2222;}
	.st2{fill:#FAC2C3;}
	.st3{fill:#A9C63C;}
</style>
<g>
	<g>
		<path id="Shape_1_" sketch:type="MSShapeGroup" class="st0" d="M-224.3,372.4c12.5,1.3,28.4,8.4,28.4,32.7
			c0,23.2-26.6,51.2-32.8,51.2c-6.7,0-33.5-28-33.5-51.2c0-23.4,15.2-30.9,27.7-32.5L-224.3,372.4z"/>
		
			<g id="Oval-33-_x2B_-Oval-35_4_" transform="translate(34.800479, 67.437703) rotate(4.000000) translate(-34.800479, -67.437703) translate(29.136879, 55.189721)" sketch:type="MSShapeGroup">
			<path id="Oval-33_9_" class="st1" d="M-235.2,355.1c2.8-0.1,5.6,5.2,6.4,11.7c0.8,6.6-0.8,11.9-3.6,12c-2.8,0.1-5.6-5.2-6.4-11.7
				C-239.5,360.5-237.9,355.2-235.2,355.1L-235.2,355.1L-235.2,355.1z"/>
			<path id="Oval-35_9_" class="st2" d="M-234.6,358.4c1,0,2.1,2.2,2.4,4.8c0.3,2.7-0.3,4.8-1.3,4.8s-2.1-2.2-2.4-4.8
				C-236.2,360.6-235.6,358.4-234.6,358.4L-234.6,358.4L-234.6,358.4z"/>
		</g>
		
			<g id="Oval-33-_x2B_-Oval-36_4_" transform="translate(53.141460, 64.709184) rotate(4.000000) translate(-53.141460, -64.709184) translate(48.421793, 53.874431)" sketch:type="MSShapeGroup">
			<path id="Oval-33_8_" class="st1" d="M-235.5,355c2.4,0,4.8,4.6,5.4,10.3c0.6,5.7-0.8,10.4-3.2,10.5c-2.4,0-4.8-4.6-5.4-10.3
				C-239.2,359.8-237.8,355.1-235.5,355L-235.5,355L-235.5,355z"/>
			<path id="Oval-35_8_" class="st2" d="M-235,358c0.9,0,1.7,1.9,2,4.3c0.2,2.3-0.3,4.2-1.1,4.2c-0.9,0-1.8-1.9-2-4.3
				C-236.4,359.8-235.9,357.9-235,358L-235,358L-235,358z"/>
		</g>
		<path id="Path-635_5_-Copy" sketch:type="MSShapeGroup" class="st3" d="M-232.1,373.2c-1.4-0.2-2.1-0.5-2.8-0.8
			c-3.5-1.3-9.4-0.7-18.2-3.1c-4.4-1.2-8.4-6.6-3.7-9.1c8.1-3.7,25.6,10.9,25.6,10.9s-2.1-3.7-6.7-7.8c-7.5-7.2-12-15.8-8.5-19.8
			c3.9-3.6,8.7,0.5,9.9,3.3c2.5,3.7,7.1,15.2,8,22.4c0.3,2.1-0.4,3.7,0.2,1.5c1.5-5.2,3.2-21.2,9.1-29.1c8.4-10.4,20-1.8,14.8,8.3
			c-4.7,9-13.8,8.5-19.1,20.8c-0.3,0.7-0.5,1.6-1.2,1.8c-1.6,0.6-3.1,0.8-4.2,0.8C-229.3,373.3-230.8,373.4-232.1,373.2z"/>
	</g>
</g>
</svg>
