<?xml version="1.0" encoding="utf-8"?>
<!-- Generator: Adobe Illustrator 16.0.0, SVG Export Plug-In . SVG Version: 6.00 Build 0)  -->
<!DOCTYPE svg PUBLIC "-//W3C//DTD SVG 1.1//EN" "http://www.w3.org/Graphics/SVG/1.1/DTD/svg11.dtd">
<svg version="1.1" id="Layer_1" xmlns:sketch="http://www.bohemiancoding.com/sketch/ns"
	 xmlns="http://www.w3.org/2000/svg" xmlns:xlink="http://www.w3.org/1999/xlink" x="0px" y="0px" width="23px" height="39px"
	 viewBox="0 0 78 131" enable-background="new 0 0 78 131" xml:space="preserve">
<g id="Page-1" sketch:type="MSPage">
	<g id="carrot-01-copy-3" sketch:type="MSLayerGroup">
		<g id="Group" sketch:type="MSShapeGroup">
			<path id="Shape" fill="#F47C00" d="M38.773,128.813c6.582,0,34.754-29.732,34.754-54.375c0-28.893-21.145-34.91-34.754-34.91
				c-13.607,0-35.486,6.017-35.486,34.91C3.288,99.081,31.723,128.813,38.773,128.813z"/>
			<path id="Path-635_5_" fill="#A9C63C" d="M34.208,40.584c-0.54-0.243-1.184-0.504-2.003-0.805
				c-3.718-1.371-9.908-0.79-19.284-3.322c-4.694-1.319-8.935-6.97-3.914-9.622c8.598-3.97,27.083,11.597,27.083,11.597
				s-2.178-3.956-7.133-8.254c-7.996-7.626-12.73-16.753-8.952-21.062c4.163-3.773,9.188,0.48,10.522,3.542
				c2.635,3.889,7.515,16.145,8.463,23.784c0.276,2.236-0.476,3.884,0.201,1.614c1.634-5.491,3.342-22.495,9.663-30.846
				c8.903-11.082,21.201-1.875,15.69,8.817C59.604,25.609,49.875,25.251,44.3,38.31c-0.332,0.779-0.748,1.061-1.139,1.408
				c-1.656,0.637-3.496,0.935-4.602,0.935C38.092,40.656,36.393,40.627,34.208,40.584L34.208,40.584z"/>

				<g id="Oval-33-_x2B_-Oval-35_4_" transform="translate(20.799602, 43.510859) rotate(4.000000) translate(-20.799602, -43.510859) translate(17.265356, 35.648566)">
				<path id="Oval-33_9_" fill="#5C2222" d="M21.002,23.668c2.926-0.08,5.97,5.498,6.801,12.459
					c0.833,6.964-0.865,12.671-3.79,12.749c-2.925,0.083-5.97-5.495-6.8-12.456C16.381,29.457,18.077,23.747,21.002,23.668
					L21.002,23.668L21.002,23.668z"/>
				<path id="Oval-35_9_" fill="#FAC2C3" d="M21.575,27.214c1.064,0.005,2.186,2.309,2.506,5.142
					c0.319,2.832-0.282,5.123-1.343,5.115c-1.064-0.007-2.185-2.309-2.506-5.142C19.911,29.494,20.512,27.205,21.575,27.214
					L21.575,27.214L21.575,27.214z"/>
			</g>

				<g id="Oval-33-_x2B_-Oval-36_4_" transform="translate(32.860086, 41.437934) rotate(4.000000) translate(-32.860086, -41.437934) translate(29.620360, 34.740425)">
				<path id="Oval-33_8_" fill="#5C2222" d="M28.718,22.626c2.508-0.048,5.069,4.858,5.723,10.957
					c0.655,6.098-0.85,11.079-3.359,11.124c-2.505,0.046-5.068-4.86-5.72-10.959C24.708,27.651,26.211,22.669,28.718,22.626
					L28.718,22.626L28.718,22.626z"/>
				<path id="Oval-35_8_" fill="#FAC2C3" d="M29.18,25.73c0.912,0.016,1.853,2.041,2.104,4.52c0.249,2.482-0.286,4.481-1.196,4.463
					c-0.911-0.015-1.854-2.037-2.103-4.521C27.733,27.713,28.268,25.714,29.18,25.73L29.18,25.73L29.18,25.73z"/>
			</g>
		</g>
	</g>
</g>
</svg>
