<svg width="579" height="94" viewBox="0 0 579 94" xmlns="http://www.w3.org/2000/svg"><title>pattern__carrot-gray</title><g fill="none" fill-rule="evenodd"><path d="M48.857 36.762l-3.3 1.21-2.616-2.35.12 3.513-3.05 1.752 3.39.963.722 3.46 1.97-2.932 3.512.377-2.188-2.778 1.44-3.215zm-3.145 4.803l-1.188 1.775-.45-2.1-2.06-.593 1.85-1.06-.075-2.146 1.593 1.437 2.003-.736-.87 1.96 1.32 1.697-2.124-.232zM15.342 51.385l.13.027c6.578 1.387 7.005 8.38 2.932 11.5-1.957 1.413-3.41 1.176-5.32 1.98-1.864.884-3.35 1.886-3.35 1.886s.898-2.706-.324-4.605c-1.222-1.898-2.023-2.906-1.95-5.864.043-1.424 1.28-5.743 6.92-5.08l-.024-.02c-.556-.448-1.673-.65-3.185-1.598-.746-.506-1.216-1.69-.174-1.925 1.735-.232 4.072 3.463 4.072 3.463s-.167-.814-.823-1.846c-.987-1.757-1.308-3.657-.46-4.16.89-.42 1.565.547 1.644 1.195.23.832.235 3.537-.045 4.907l-.043.138zm-.01.26s.02-.062.102-.106c.544-.874 1.996-4.035 3.602-5.207 2.122-1.5 3.774.807 2.26 2.355-1.41 1.44-3.04.872-4.75 2.844-.103.108-.186.152-.268.196-.356.03-.693-.004-.946-.082zM39.204 88.63l-3.36-2.93.983-4.285-3.77 2.258-3.828-2.29 1.02 4.347-3.337 2.9 4.42.346 1.694 4.098 1.728-4.07 4.45-.373zM19.565 18.068c-3.447.73-5.635 4.11-4.906 7.49.728 3.38 4.11 5.634 7.49 4.905 3.448-.73 5.635-4.11 4.906-7.49-.73-3.38-4.044-5.634-7.49-4.905zm2.386 11.135c-2.717.597-5.435-1.193-6.03-3.91-.598-2.718 1.192-5.436 3.91-6.032 2.718-.596 5.436 1.194 6.033 3.91.596 2.72-1.127 5.503-3.912 6.033zm1.394-5.568c.53-.132.86-.596.73-1.126-.134-.532-.598-.863-1.128-.73-.53.132-.862.596-.73 1.126.133.53.597.796 1.128.73zm-4.442 0c.53-.132.862-.596.73-1.126-.133-.532-.597-.863-1.128-.73-.53.132-.862.596-.73 1.126.134.53.598.796 1.128.73zm2.453 4.044c1.458-.266 2.52-1.128 2.784-2.19l-6.498.996c.796.928 2.254 1.458 3.713 1.193zM44.32 59.837c1.888-.898 3.993-1.24 6.315-1.027 5.63.727 9.45 5.197 8.69 10.117-.76 4.92-5.98 8.363-11.662 7.743-5.63-.727-9.45-5.197-8.69-10.116.235-1.155.662-2.375 1.32-3.4.046-2.44-.73-4.514.943-5.97.61 1.413.89 2.846 3.083 2.653zM70.938 81.653c-.796.53-1.193 1.26-1.46 1.988l-.198-1.457c0-.2-.198-.265-.33-.265-.2 0-.266.2-.266.33l.265 1.79c-.797-.993-1.857-1.723-1.924-1.79-.132-.065-.33-.065-.464.067-.066.133-.066.332.067.464 0 0 2.12 1.458 2.518 2.916 0 .066 0 .066.066.066-1.657.398-2.784 1.79-2.52 3.314.067.464.332 1.657.797 3.05l1.923-.266c.265 0 .464.133.464.398 0 .132 0 .2-.066.33-.065.068-.132.134-.264.2l-1.79.265c1.06 3.248 2.65 7.16 3.778 6.96.796-.133 1.26-2.254 1.525-4.706l-1.393.2c-.265.065-.464-.134-.464-.4-.066-.264.133-.463.398-.463l1.46-.2h.066c.132-1.788.132-3.644.132-4.904l-2.52.332c-.264 0-.463-.133-.463-.398-.066-.265.132-.464.398-.464l2.52-.33h.065c0-.2 0-.333-.066-.465-.2-1.525-1.724-2.585-3.38-2.453v-.066s.065-2.453 1.59-3.447c.132-.067.2-.266.066-.465-.2-.2-.398-.265-.53-.132zM231.46 44.094c.043.01.087.018.13.027 6.578 1.388 7.005 8.38 2.93 11.502-1.955 1.412-3.408 1.175-5.317 1.978-1.865.885-3.35 1.887-3.35 1.887s.897-2.706-.325-4.605c-1.222-1.898-2.024-2.906-1.95-5.864.042-1.423 1.278-5.742 6.92-5.078l-.024-.022c-.557-.447-1.673-.65-3.186-1.597-.746-.505-1.216-1.688-.174-1.924 1.735-.232 4.07 3.463 4.07 3.463s-.166-.815-.82-1.847c-.99-1.757-1.31-3.657-.462-4.16.89-.42 1.566.547 1.645 1.195.23.833.236 3.538-.045 4.908l-.042.138zm-.01.26s.02-.062.102-.106c.544-.873 1.995-4.034 3.602-5.206 2.122-1.5 3.774.807 2.26 2.355-1.41 1.44-3.04.872-4.75 2.844-.103.108-.186.152-.27.196-.355.03-.69-.003-.944-.08zM301.696 15.326l.09-.034c4.518-1.658 7.445 2.48 6.165 5.957-.647 1.615-1.618 2.024-2.47 3.247-.793 1.257-1.312 2.44-1.312 2.44s-.488-2.007-1.954-2.708c-1.466-.703-2.336-1.017-3.42-2.864-.517-.893-1.416-4.022 2.26-5.768-.008 0-.016-.002-.023-.004-.508-.063-1.262.24-2.54.233-.647-.025-1.384-.574-.84-1.117.962-.806 3.79.575 3.79.575s-.413-.436-1.204-.82c-1.27-.705-2.19-1.752-1.867-2.385.38-.6 1.158-.26 1.453.108.458.424 1.493 2.086 1.846 3.036l.026.102zm.093.164s-.013-.046.02-.105c-.003-.745-.33-3.244.198-4.58.715-1.732 2.597-.943 2.27.587-.306 1.424-1.51 1.698-1.797 3.564-.02.106-.053.164-.086.223-.205.153-.422.26-.605.31zM109.53 59.275c4.778-3.612 9.724.176 9.443 4.73-.12 2.184-1.174 3-1.78 4.783-.512 1.806-.688 3.4-.688 3.4s-1.28-2.17-3.274-2.486c-1.995-.316-3.133-.387-5.086-2.136-.933-.9-3.15-4.303.703-7.732-.04.01-.08.02-.126.024-.61.147-1.418.73-2.922 1.2-.78.254-1.834-.18-1.405-.996.83-1.3 4.73-.69 4.73-.69s-.634-.385-1.66-.526c-1.79-.365-3.218-1.272-3.063-2.15.246-.857 1.328-.752 1.778-.407.69.35 2.5 1.875 3.28 2.872l.07.113zm.105.168s-.035-.056-.014-.147c-.266-.928-1.545-3.724-1.383-5.467.254-2.347 2.748-2.108 2.91-.1.168 1.772-1.217 2.56-.88 4.85.014.147-.007.238-.063.273-.12.31-.4.485-.57.59zM204.224 11.684l-3.756.528-2.197-3.03-.63 3.75-3.607 1.173 3.33 1.75-.005 3.81 2.718-2.67 3.612 1.208-1.675-3.423 2.21-3.096zM144.91 21.92l-2.145-5.232 3.673-4.326-5.66.428-2.97-4.81-1.352 5.524-5.532 1.406 4.795 2.988-.402 5.636 4.39-3.65 5.202 2.036zM80.634 73.07l1.244-5.514 5.49-1.438-4.88-2.895.324-5.645-4.276 3.75-5.338-2.02 2.215 5.197-3.562 4.386 5.69-.47 3.094 4.65zm-3.702-8.42l-1.357-3.202 3.236 1.258 2.593-2.246-.152 3.46 2.967 1.755-3.335.87-.808 3.368-1.872-2.874-3.458.316 2.188-2.705zM147.167 85.902c-4.972 1.06-8.154 5.965-7.093 10.937 1.06 4.97 5.966 8.15 10.938 7.09 4.972-1.06 8.154-5.965 7.094-10.936-1.06-4.97-5.967-8.153-10.94-7.092zm3.448 16.24c-3.978.86-7.89-1.724-8.75-5.7-.863-3.978 1.722-7.89 5.7-8.75 3.978-.862 7.89 1.723 8.75 5.7.863 3.977-1.723 7.888-5.7 8.75zm1.458-8.816c.73-.133 1.193-.862 1.06-1.657-.132-.73-.86-1.194-1.657-1.062-.73.133-1.193.862-1.06 1.657.132.796.86 1.26 1.657 1.06zm-6.364 1.392c.728-.133 1.192-.862 1.06-1.657-.133-.73-.862-1.193-1.658-1.06-.73.133-1.193.862-1.06 1.657.198.73.928 1.193 1.657 1.06zm4.44 5.17c2.122-.464 3.58-2.12 3.912-4.11l-9.215 1.99c1.127 1.656 3.182 2.584 5.303 2.12zM235.683 10.777c-3.448.73-5.635 4.11-4.906 7.49.73 3.38 4.11 5.634 7.49 4.904 3.448-.728 5.636-4.108 4.907-7.488-.73-3.38-4.044-5.634-7.49-4.905zm2.386 11.135c-2.72.597-5.437-1.193-6.034-3.91-.596-2.718 1.194-5.436 3.912-6.032 2.718-.597 5.436 1.193 6.033 3.91.597 2.718-1.126 5.502-3.91 6.032zm1.39-5.568c.532-.132.863-.596.73-1.126-.132-.53-.596-.862-1.126-.73-.53.133-.862.597-.73 1.127.133.53.597.796 1.127.73zm-4.44 0c.53-.132.86-.596.73-1.126-.134-.53-.598-.862-1.128-.73-.53.133-.862.597-.73 1.127.133.53.597.796 1.128.73zm2.453 4.044c1.458-.266 2.52-1.127 2.784-2.188l-6.497.995c.796.927 2.254 1.458 3.713 1.193zM208.372 35.872c-3.15-2.118-7.43-1.302-9.55 1.85-2.116 3.15-1.3 7.43 1.85 9.548 3.152 2.118 7.432 1.302 9.55-1.85 2.117-3.15 1.3-7.43-1.85-9.548zm-6.976 10.238c-2.55-1.685-3.192-5.12-1.46-7.62 1.73-2.5 5.117-3.192 7.62-1.46 2.5 1.732 3.19 5.12 1.46 7.62-1.637 2.503-5.07 3.146-7.62 1.46zm5.446-3.14c.464.29 1.122.208 1.41-.255.29-.464.208-1.122-.256-1.41-.464-.29-1.12-.208-1.41.255-.336.416-.254 1.074.256 1.41zm-3.362-3.48c.464.29 1.122.207 1.41-.256.29-.464.208-1.122-.256-1.41-.463-.29-1.12-.21-1.41.255-.29.463-.207 1.12.256 1.41zm-1.306 5.04c1.296.96 2.746 1.127 3.74.535l-5.69-4.273c-.07 1.265.654 2.778 1.95 3.738zM108.455 87.63c-1.668-1.154-3.926-.725-5.034.99-1.153 1.668-.723 3.925.992 5.034 1.668 1.154 3.925.725 5.033-.99 1.155-1.668.725-3.926-.99-5.034zm-3.657 5.374c-1.343-.914-1.687-2.702-.773-4.045.914-1.345 2.7-1.688 4.045-.774 1.344.914 1.688 2.702.774 4.045-.915 1.345-2.702 1.688-4.046.774zm2.842-1.638c.232.145.56.104.753-.174.144-.232.103-.56-.175-.753-.232-.146-.56-.105-.753.173-.144.232-.057.61.175.753zm-1.75-1.812c.232.145.56.104.753-.174.144-.232.103-.56-.175-.753-.232-.145-.56-.104-.753.174-.192.28-.103.562.175.754zm-.702 2.613c.694.528 1.49.59 2.01.27l-3.007-2.256c-.058.703.35 1.507.998 1.987zM168.833 30.58c-.663-1.39-.862-2.916-.53-4.374.927-3.778 5.236-5.965 9.612-4.838 4.375 1.06 7.093 5.037 6.165 8.815-.928 3.778-5.237 5.966-9.612 4.84-1.06-.266-2.056-.73-2.917-1.26-2.187-.266-4.043 0-5.303-1.326 1.326-.265 2.652-.265 2.586-1.856zM306.37 91.847c1.38-.833 2.372-1.97 2.81-3.28 1.062-3.422-2.032-7.01-6.924-7.97-4.857-1.015-9.61 1.014-10.673 4.436-1.063 3.423 2.03 7.01 6.922 7.972 1.182.24 2.403.29 3.528.233 2.29.72 3.977 1.723 5.91 1.197-1.167-.777-2.47-1.342-1.573-2.588zM107.258 31.75c-.795-.597-1.325-1.393-1.59-2.387-.53-2.452 1.26-4.905 4.043-5.568 2.786-.662 5.504.796 6.1 3.248.53 2.453-1.26 4.905-4.044 5.568-.663.134-1.392.2-2.055.134-1.325.463-2.32 1.193-3.38.795.663-.53 1.392-.93.928-1.79zM267.026 98.032c.067-.067.067-.067 0 0 .067-.133.067-.133.067-.2.265-.728.53-1.39.795-2.054.796-1.524 1.724-2.585 2.785-3.645 1.06-1.194 2.187-2.387 3.182-4.243.397-.73.73-1.524.994-2.452.264-.73.53-1.392.86-2.055.796-1.524 1.725-2.585 2.785-3.645 1.06-1.193 2.188-2.386 3.182-4.242.398-.73.73-1.525.995-2.453.2-.596-.067-1.193-.53-1.524l-1.658-1.062-4.442-2.784c-.33-.198-.73-.265-1.127-.132-.33.132-.53.33-.73.596 0 .067-.065.133-.065.2-.265.728-.53 1.39-.862 2.054-.796 1.524-1.724 2.585-2.784 3.645-1.06 1.194-2.188 2.387-3.182 4.243-.398.73-.73 1.524-.995 2.452-.265.73-.53 1.392-.862 2.055-.795 1.524-1.723 2.585-2.784 3.645-1.06 1.193-2.187 2.386-3.18 4.242-.4.73-.73 1.525-.995 2.453-.2.596.066 1.193.53 1.524l4.574 2.85 1.458.93c.066 0 .066.066.132.066.796.397 1.525.132 1.856-.464zm-5.038-3.248c.928-2.983 2.32-4.44 3.713-5.966 1.46-1.59 2.984-3.18 4.044-6.43.93-2.982 2.32-4.44 3.713-5.964 1.458-1.525 2.917-3.116 3.978-6.297.33.2.596.397.86.53 0 .066-.065.066-.065.133-.928 2.982-2.32 4.44-3.712 5.965-1.06 1.127-2.122 2.32-3.05 4.11-.33.662-.663 1.458-.928 2.32-.928 2.982-2.32 4.44-3.712 5.965-1.06 1.127-2.122 2.32-3.05 4.11-.33.662-.597 1.39-.928 2.187-.265-.2-.597-.332-.862-.53-.066-.067-.066-.133 0-.133zm-1.26-3.447c1.724-3.447 4.177-4.44 5.9-7.887.332-.663.664-1.392.93-2.254.264-.862.595-1.59.927-2.254 1.724-3.446 4.176-4.44 5.9-7.887.33-.663.663-1.392.928-2.254.332.2.663.4.995.598 0 .066-.067.066-.067.132-.927 2.983-2.32 4.44-3.71 5.966-1.062 1.126-2.123 2.32-3.05 4.11-.332.662-.664 1.457-.93 2.32-.927 2.982-2.32 4.44-3.71 5.964-1.062 1.127-2.123 2.32-3.05 4.11-.332.663-.597 1.392-.93 2.187-.33-.2-.596-.397-.993-.596.2-.86.53-1.59.862-2.253zM67.946 40.16h.2c.662-.13 1.325-.13 1.922-.13 1.524 0 2.718.33 3.977.728 1.326.398 2.785.795 4.64.795.73 0 1.526-.066 2.32-.2.664-.13 1.327-.197 1.924-.197 1.523 0 2.717.33 3.976.73 1.326.396 2.785.794 4.64.794.73 0 1.526-.066 2.32-.2.53-.065.93-.53.93-1.06l.132-1.723.398-4.64c0-.33-.133-.728-.332-.927-.2-.2-.464-.332-.795-.332H94c-.663.133-1.326.2-1.923.2-1.525 0-2.718-.332-3.977-.73-1.326-.398-2.785-.795-4.64-.795-.73 0-1.526.066-2.32.198-.664.134-1.327.2-1.924.2-1.525 0-2.718-.33-3.977-.73-1.327-.396-2.786-.794-4.642-.794-.73 0-1.525.066-2.32.2-.53.065-.928.53-.928 1.06l-.398 4.772-.133 1.524v.133c0 .596.53 1.126 1.126 1.126zm.53-5.3c2.72-.465 4.442.065 6.166.53 1.856.53 3.712 1.06 6.696.596 2.718-.464 4.375.066 6.165.53 1.79.53 3.646 1.06 6.563.596 0 .332-.066.597-.066.928h-.133c-2.718.464-4.442-.066-6.165-.53-1.326-.398-2.652-.795-4.442-.795-.663 0-1.392.066-2.254.2-2.718.463-4.375-.068-6.165-.532-1.325-.397-2.65-.795-4.44-.795-.664 0-1.327.066-2.122.2 0-.333.066-.598.066-.93h.133zm2.188-2.387c3.38 0 5.17 1.458 8.618 1.458.663 0 1.326-.065 2.122-.198.795-.133 1.458-.2 2.12-.2 3.382 0 5.172 1.46 8.62 1.46.662 0 1.325-.067 2.12-.2 0 .398-.065.73-.065.995h-.134c-2.718.464-4.442-.067-6.165-.53-1.325-.398-2.65-.796-4.44-.796-.664 0-1.393.067-2.255.2-2.718.464-4.375-.066-6.165-.53-1.326-.398-2.652-.796-4.442-.796-.663 0-1.326.067-2.12.2 0-.332.065-.664.065-.995.795 0 1.458-.067 2.12-.067zM196.12 93.657c0-.066-.067-.066-.067-.066-.2-.264-.398-.53-.53-.795-.398-.662-.53-1.26-.663-1.856-.2-.663-.332-1.392-.796-2.188-.2-.33-.398-.596-.663-.928-.198-.265-.397-.53-.53-.795-.397-.664-.53-1.26-.662-1.857-.2-.663-.332-1.392-.796-2.187-.2-.332-.397-.597-.663-.928-.133-.2-.465-.265-.664-.133l-.795.33-2.054.996c-.133.067-.265.2-.332.398 0 .133 0 .266.067.398 0 0 0 .066.067.066.2.266.398.53.53.796.398.663.53 1.26.663 1.856.2.663.332 1.392.796 2.187.2.332.398.598.663.93.198.264.396.53.53.794.397.663.53 1.26.662 1.856.2.663.33 1.392.796 2.188.198.33.397.596.662.928.133.198.465.265.663.132l2.122-.994.663-.332h.066c.332-.198.398-.53.265-.795zm-2.387 1.127c-.862-1.06-1.06-1.922-1.326-2.784-.2-.928-.464-1.856-1.392-2.983-.862-1.06-1.06-1.922-1.26-2.784-.2-.86-.464-1.79-1.392-2.916l.398-.2s0 .067.067.067c.862 1.06 1.06 1.923 1.326 2.784.132.663.33 1.326.795 2.12.2.266.398.598.663.93.863 1.06 1.062 1.92 1.26 2.783.133.664.332 1.327.796 2.122.133.265.332.53.597.862-.2-.133-.33-.066-.53 0zm-1.525-.398c-.862-1.458-.663-2.585-1.46-4.043-.13-.265-.33-.597-.595-.862-.265-.33-.464-.595-.597-.86-.862-1.46-.663-2.585-1.458-4.044-.133-.265-.332-.596-.597-.86.134-.068.332-.134.465-.2 0 0 0 .066.066.066.863 1.06 1.062 1.922 1.327 2.784.133.663.332 1.326.796 2.12.2.266.398.598.663.93.862 1.06 1.06 1.92 1.26 2.783.132.662.33 1.324.795 2.12.133.265.332.53.597.862-.132.066-.265.132-.464.198-.464-.397-.663-.73-.795-.994zM168.638 51.874c0 1.59.795 2.983 1.59 4.11l-2.386-1.06c-.265-.133-.597 0-.73.264-.132.266 0 .597.266.73l2.917 1.26c-2.254.264-4.375 1.192-4.442 1.258-.265.133-.397.464-.265.73.133.265.464.397.73.265.066 0 4.11-1.79 6.695-1.06h.2c-.995 2.784.065 5.767 2.518 6.893.797.332 2.785.995 5.305 1.657l1.392-3.115c.2-.397.596-.53.994-.397.2.066.333.265.4.397.065.2.065.398 0 .597l-1.327 2.916c5.834 1.458 13.193 2.784 13.988.862.598-1.326-2.187-4.043-5.634-6.695l-.994 2.254c-.2.397-.597.53-.995.397-.398-.2-.53-.597-.398-.995l1.06-2.452c0-.066.066-.066.066-.133-2.585-1.922-5.303-3.645-7.226-4.772l-1.79 4.043c-.198.398-.596.53-.994.398-.398-.2-.53-.597-.398-.994l1.79-4.11c0-.066.067-.066.067-.132-.266-.133-.53-.265-.73-.332-2.453-1.127-5.436.133-6.828 2.784l-.132-.132c-.067 0-3.58-2.387-3.647-5.568 0-.332-.265-.53-.53-.53-.33.066-.597.33-.53.662zM92.005.058c-.795.53-1.193 1.26-1.458 1.99l-.2-1.46c0-.198-.198-.265-.33-.265-.2 0-.266.2-.266.332l.266 1.79C89.22 1.45 88.16.72 88.094.654c-.133-.067-.332-.067-.464.066-.066.134-.066.332.066.465 0 0 2.122 1.458 2.52 2.916 0 .068 0 .068.066.068-1.658.397-2.785 1.79-2.52 3.314.067.464.332 1.657.796 3.05l1.922-.266c.266 0 .465.132.465.397 0 .133 0 .2-.067.332-.066.066-.132.132-.265.2l-1.79.264c1.06 3.247 2.652 7.157 3.78 6.958.794-.132 1.258-2.253 1.524-4.706l-1.393.2c-.265.066-.464-.133-.464-.398-.066-.266.133-.464.398-.464l1.46-.2h.065c.133-1.79.133-3.645.133-4.904l-2.52.33c-.265 0-.464-.13-.464-.396-.066-.266.133-.464.398-.464l2.52-.332h.066c0-.2 0-.33-.067-.464-.2-1.524-1.724-2.585-3.382-2.452V4.1s.067-2.45 1.59-3.445c.134-.067.2-.265.068-.464-.2-.198-.398-.264-.53-.132zM264.323 26.222l.53-1.06 7.028 3.58c.53.264.995.33 1.326.264.332-.067.663-.332.796-.663.066-.066.066-.2.132-.332v-.33c0-.133 0-.2-.066-.33 0-.068-.066-.2-.066-.266l.862-.398c.066.2.132.398.2.596.065.2.065.398.065.597 0 .198 0 .397-.067.53-.067.198-.133.33-.2.463-.132.265-.33.53-.53.73-.2.198-.464.33-.795.463-.265.066-.663.133-.995.066-.397-.066-.795-.198-1.193-.397.133.33.265.596.332.928.066.33.132.663.132.994 0 .33 0 .663-.066.994-.066.333-.2.664-.332.995-.33.597-.73 1.127-1.193 1.525-.464.398-1.06.663-1.59.795-.598.133-1.194.2-1.79.133-.597-.066-1.26-.265-1.79-.53-.597-.265-1.06-.663-1.526-1.127-.397-.463-.73-.993-.928-1.524-.2-.596-.332-1.193-.266-1.79 0-.662.2-1.26.53-1.855.2-.33.398-.662.597-.927.266-.265.532-.464.797-.663.265-.2.596-.33.862-.464.264-.132.595-.2.927-.265l-1.724-.728zm-.53 3.645c-.266.464-.398.995-.398 1.46 0 .463.066.927.265 1.324.2.4.398.797.73 1.128.33.33.662.597 1.126.795.398.2.862.332 1.326.398.464.067.928 0 1.392-.065.464-.133.862-.332 1.26-.597.398-.265.73-.663.928-1.127.2-.462.332-.926.332-1.39 0-.464-.067-.928-.266-1.392-.2-.464-.397-.862-.73-1.193-.33-.332-.662-.663-1.06-.862-.397-.2-.86-.332-1.325-.398-.465-.066-.93 0-1.393.133-.464.132-.86.33-1.26.596-.397.398-.728.796-.927 1.193zm2.453 1.127c.066-.132.132-.2.265-.33.067-.068.2-.134.332-.2.133-.066.265-.066.398-.066s.265.066.398.132c.132.066.2.133.33.265.067.133.134.2.2.332s.066.265.066.397c0 .133-.066.266-.132.398-.067.133-.133.2-.265.332-.067.066-.2.132-.332.198-.132.067-.265.067-.398.067-.132 0-.265-.068-.397-.134-.133-.066-.2-.132-.332-.265-.066-.065-.132-.198-.2-.33-.065-.133-.065-.266-.065-.398 0-.133.066-.265.133-.398zm10.54 12.66l.332-.596-7.226-3.646-.332.597 7.226 3.644zm5.04-8.55l.53-1.06 7.026 3.578c.53.266.994.332 1.326.266.33-.067.663-.332.795-.663.067-.067.067-.2.133-.332v-.33c0-.134 0-.2-.066-.333 0-.066-.067-.198-.067-.265l.862-.397.2.596c.065.2.065.398.065.597 0 .2 0 .398-.066.53-.066.134-.132.332-.2.465-.13.265-.33.53-.53.73-.198.198-.463.33-.795.463-.266.066-.664.133-.995.066-.398-.066-.796-.2-1.193-.397.132.33.265.596.33.928.067.33.134.662.134.994 0 .33 0 .662-.067.993-.067.33-.2.663-.332.994-.33.597-.73 1.127-1.193 1.525-.464.398-1.06.663-1.59.795-.598.133-1.195.2-1.79.133-.598-.067-1.26-.265-1.79-.53-.598-.266-1.062-.663-1.526-1.127-.4-.464-.73-.995-.93-1.525-.198-.596-.33-1.193-.264-1.79 0-.662.2-1.26.53-1.855.2-.332.398-.663.597-.928.265-.265.53-.464.795-.663.265-.2.597-.332.862-.464.332-.133.597-.2.928-.265l-1.723-.73zm-.532 3.71c-.265.465-.398.996-.398 1.46 0 .464.067.928.266 1.325.2.397.397.795.73 1.126.33.332.662.597 1.126.796.398.198.862.33 1.326.397.464.066.928 0 1.392-.067.464-.133.862-.33 1.26-.597.397-.265.73-.662.928-1.126.198-.464.33-.928.33-1.392 0-.464-.065-.928-.264-1.392-.2-.464-.398-.862-.73-1.193-.33-.332-.662-.663-1.06-.862-.398-.198-.862-.33-1.326-.397-.464-.066-.928 0-1.392.133-.464.132-.862.33-1.26.596-.397.332-.73.73-.928 1.193zm2.453 1.128c.066-.132.133-.2.265-.33.067-.067.2-.134.332-.2s.265-.066.398-.066c.132 0 .265.066.397.132.132.067.198.133.33.265.067.133.133.2.2.332.066.132.066.265.066.398 0 .132-.066.265-.133.397-.066.133-.132.2-.265.332-.066.066-.2.132-.33.2-.134.065-.266.065-.4.065-.132 0-.264-.066-.397-.133-.13-.066-.198-.132-.33-.265-.067-.067-.133-.2-.2-.332-.065-.133-.065-.265-.065-.398 0-.2.066-.33.132-.398zM134.594 37.927l-.094-.83 5.532-.584c.415-.046.715-.185.886-.352.17-.166.265-.45.216-.697.014-.064-.037-.143-.05-.247l-.126-.196c-.05-.078-.077-.117-.167-.17-.024-.04-.114-.092-.14-.132l.357-.566.347.277c.116.09.192.208.268.326.077.118.153.235.165.34.037.142.05.246.06.35.024.208.008.44-.033.635-.042.195-.147.375-.293.58-.13.142-.34.334-.56.422-.262.114-.548.188-.86.223.206.145.386.25.553.422.166.17.333.34.46.537.127.196.255.392.343.614.088.22.137.468.185.715.035.48.003.947-.12 1.36-.12.414-.372.8-.634 1.082-.302.307-.63.576-1.008.766-.38.19-.847.328-1.263.375-.454.072-.882.015-1.334-.08-.413-.123-.813-.31-1.134-.546-.347-.278-.654-.58-.844-.958-.255-.392-.366-.82-.4-1.302-.01-.272-.02-.544-.003-.778.054-.258.134-.478.215-.697.08-.22.226-.426.33-.606.107-.18.278-.348.45-.514l-1.3.23zm1.087 2.36c.022.376.147.74.326 1.015.178.275.395.524.666.682.27.16.54.318.864.387.323.07.62.1.972.038.312-.035.637-.135.937-.274.3-.14.55-.356.798-.574.224-.256.382-.527.516-.836.132-.31.176-.673.115-1.023-.06-.35-.16-.676-.34-.95-.177-.275-.394-.524-.69-.722-.296-.198-.566-.356-.89-.425-.323-.07-.647-.138-.958-.102-.312.036-.637.136-.937.275-.3.14-.55.356-.773.613-.223.256-.382.527-.516.837-.08.388-.124.75-.09 1.062zm1.884-.276c-.01-.103.002-.167.03-.297.014-.065.067-.155.12-.245.053-.09.13-.14.21-.192.078-.05.182-.062.286-.074.104-.012.168.002.298.03.09.052.154.066.244.12.09.052.142.13.192.21.05.077.063.18.075.285.01.104-.003.168-.03.298-.014.064-.067.155-.12.245-.053.09-.132.14-.21.192-.08.05-.183.062-.286.074-.104.012-.17-.002-.298-.03-.065-.013-.155-.066-.245-.12-.09-.052-.14-.13-.19-.21-.052-.077-.064-.18-.076-.285zm11.098 3.44l-.033-.48-5.675.62.033.48 5.674-.62zm-.304-6.993l-.094-.83 5.532-.583c.416-.047.715-.186.886-.352.17-.167.265-.45.216-.698.014-.065-.037-.143-.05-.247l-.126-.196c-.05-.077-.077-.116-.167-.17-.025-.04-.115-.092-.14-.13l.356-.567.348.276c.116.092.192.21.268.327.077.117.153.235.165.34.013.103.05.246.06.35.025.207.01.44-.032.635-.04.194-.147.374-.292.58-.132.14-.342.333-.563.42-.26.115-.547.19-.86.224.207.145.387.25.554.422.166.17.333.34.46.537.127.196.255.392.343.613.088.222.137.47.186.716.033.48 0 .946-.12 1.36-.122.413-.373.8-.636 1.082-.302.307-.63.576-1.008.766-.378.19-.847.327-1.263.374-.455.072-.883.015-1.335-.08-.414-.123-.814-.31-1.135-.547-.347-.277-.654-.58-.844-.957-.255-.392-.366-.822-.4-1.302-.01-.27-.02-.544-.003-.777.055-.26.136-.478.216-.698.08-.22.225-.425.33-.605.146-.206.277-.347.448-.513l-1.3.23zm1.112 2.4c.022.376.147.74.325 1.015.178.275.396.524.666.682.272.16.542.318.865.387.324.07.622.1.973.038.31-.035.637-.135.937-.274.3-.14.55-.356.798-.574.223-.256.382-.527.515-.836.134-.31.177-.673.117-1.023-.06-.35-.16-.676-.34-.95-.177-.275-.395-.524-.69-.722-.296-.198-.567-.356-.89-.425-.324-.07-.647-.138-.96-.102-.31.036-.636.136-.936.275-.3.14-.55.356-.773.613-.224.257-.383.527-.516.837-.107.348-.15.71-.09 1.062zm1.884-.276c-.012-.103.002-.167.03-.297.013-.064.066-.155.12-.245.052-.09.13-.14.21-.192.077-.05.18-.062.285-.074.103-.012.168.002.297.03.09.052.155.066.245.12.09.052.14.13.192.21.05.077.063.18.074.285.012.104-.002.168-.03.298-.013.064-.066.155-.12.245-.052.09-.13.14-.21.192-.077.05-.18.062-.285.074-.104.012-.168-.002-.298-.03-.064-.013-.155-.066-.245-.12-.09-.052-.14-.13-.192-.21-.076-.116-.088-.22-.074-.285zM392.58 13.45l-.36-.754 5.042-2.352c.377-.18.616-.408.723-.62.107-.214.104-.514-.023-.73-.008-.067-.082-.124-.127-.22l-.184-.143c-.073-.056-.11-.085-.212-.106-.037-.03-.14-.05-.176-.078l.153-.652.418.15c.14.048.25.135.36.22.11.087.22.174.266.268.08.123.126.218.17.312.09.19.152.415.176.61.024.198-.018.403-.088.645-.078.175-.214.425-.395.58-.21.193-.456.356-.74.49.243.07.448.113.66.22.214.107.427.214.61.358.185.144.37.288.525.468.155.18.282.4.408.616.188.443.31.895.33 1.325.02.43-.093.878-.25 1.23-.185.39-.407.75-.703 1.052-.296.302-.694.584-1.072.764-.405.216-.828.302-1.287.358-.43.02-.87-.026-1.25-.146-.418-.15-.808-.334-1.11-.63-.37-.288-.614-.657-.8-1.1-.1-.255-.197-.51-.258-.735-.032-.26-.028-.495-.023-.73.005-.233.075-.474.116-.68.042-.204.15-.417.256-.63l-1.154.64zm1.796 1.88c.143.348.38.652.638.853.258.202.544.366.852.428.307.063.615.126.943.085.327-.04.618-.11.93-.28.283-.135.558-.336.797-.565.238-.23.403-.516.568-.802.127-.316.19-.623.215-.96.025-.336-.052-.693-.223-1.005-.172-.312-.372-.587-.63-.788-.258-.202-.545-.366-.89-.457-.343-.09-.65-.153-.98-.113-.327.04-.655.08-.938.215-.284.135-.56.335-.798.565-.238.23-.403.515-.53.83-.128.316-.19.624-.216.96.048.394.125.75.26 1.034zm1.69-.875c-.043-.095-.05-.16-.068-.29-.008-.067.013-.17.034-.272.02-.102.078-.176.136-.25.057-.074.152-.118.246-.163.095-.045.16-.053.29-.07.104.02.17.013.272.034.102.02.176.078.25.136.073.057.118.152.163.246.044.095.052.16.068.29.008.067-.012.17-.033.272-.02.102-.078.176-.136.25-.06.074-.153.118-.247.163-.095.046-.16.054-.292.07-.064.01-.167-.012-.27-.033-.102-.02-.175-.078-.25-.136-.073-.056-.118-.15-.163-.245zm11.615-.36l-.187-.444-5.164 2.434.187.443 5.164-2.433zm-2.564-6.514l-.36-.754 5.042-2.352c.377-.18.616-.41.723-.622.108-.213.104-.512-.022-.73-.008-.065-.082-.123-.127-.217l-.183-.144c-.074-.057-.11-.085-.213-.106-.037-.03-.14-.05-.176-.078l.153-.652c.14.05.28.1.42.148.138.05.25.136.36.223.11.086.22.172.265.267.045.094.127.217.172.312.09.19.15.414.175.61.024.198-.018.403-.088.645-.078.175-.214.425-.395.58-.21.192-.457.356-.74.49.242.07.447.112.66.22.213.106.426.214.61.357.184.144.368.288.524.47.155.18.282.397.408.615.188.443.31.894.33 1.325.02.43-.093.877-.25 1.23-.185.39-.407.75-.703 1.052-.297.302-.695.584-1.073.764-.406.216-.83.3-1.288.358-.432.02-.87-.027-1.252-.146-.417-.15-.807-.334-1.11-.63-.368-.288-.613-.657-.8-1.1-.098-.255-.196-.51-.257-.735-.03-.262-.027-.495-.022-.73.004-.233.075-.475.116-.68.07-.24.15-.418.256-.63l-1.154.64zm1.833 1.907c.142.35.38.653.637.855.257.2.544.366.852.428.306.062.613.124.94.084.33-.04.62-.11.933-.28.283-.136.558-.336.797-.565.238-.23.403-.517.567-.804.128-.315.19-.623.216-.96.025-.335-.052-.692-.224-1.004-.172-.312-.372-.587-.63-.79-.258-.2-.545-.365-.89-.456-.343-.09-.65-.153-.98-.113-.327.04-.655.08-.938.216-.283.134-.56.334-.797.563-.238.23-.403.516-.53.83-.13.317-.19.624-.216.96.01.365.087.722.26 1.034zm1.69-.874c-.045-.094-.053-.16-.07-.29-.007-.067.014-.17.035-.272.02-.1.078-.175.135-.248.058-.074.152-.12.247-.164.094-.045.16-.053.29-.07.104.022.17.014.272.034.1.02.175.08.25.136.072.058.117.152.162.247.045.094.053.16.07.29.007.067-.014.17-.034.27-.02.104-.08.178-.136.25-.058.075-.152.12-.247.165-.094.045-.16.053-.29.07-.067.007-.17-.014-.272-.034-.102-.02-.176-.08-.25-.136-.11-.087-.155-.18-.163-.247zM269.58 57.952l-5.772-.903-1.91-5.52-2.657 5.2-5.84.09 4.15 4.13-1.74 5.614 5.225-2.677 4.802 3.378-.94-5.8 4.684-3.513zM474.095 51.385c.043.01.087.018.13.027 6.578 1.387 7.005 8.38 2.932 11.5-1.957 1.413-3.41 1.176-5.32 1.98-1.864.884-3.35 1.886-3.35 1.886s.898-2.706-.324-4.605c-1.222-1.898-2.023-2.906-1.95-5.864.042-1.424 1.28-5.743 6.92-5.08l-.024-.02c-.557-.448-1.674-.65-3.186-1.598-.747-.506-1.217-1.69-.175-1.925 1.734-.232 4.07 3.463 4.07 3.463s-.167-.814-.822-1.846c-.987-1.757-1.308-3.657-.46-4.16.89-.42 1.565.547 1.644 1.195.23.832.236 3.537-.044 4.907l-.043.138zm-.01.26s.02-.062.102-.106c.544-.874 1.996-4.035 3.602-5.207 2.12-1.5 3.773.807 2.26 2.355-1.41 1.44-3.04.872-4.752 2.844-.102.108-.185.152-.268.196-.355.03-.692-.004-.945-.082zM448.86 19.975l-3.757.528-2.196-3.03-.63 3.75-3.61 1.173 3.33 1.75-.004 3.81 2.718-2.67 3.613 1.208-1.675-3.423 2.21-3.095zM344.636 93.362l-4.544-1.288-.988-4.65-2.657 3.94-4.696-.506 2.92 3.74-1.926 4.353 4.438-1.635 3.502 3.18-.156-4.758 4.108-2.375zM498.505 74.468l-3.36-2.933.983-4.284-3.77 2.26-3.828-2.29 1.02 4.347-3.336 2.9 4.42.345 1.694 4.098 1.728-4.07 4.45-.372zM482.523 91.63l-11.907 1.702-7.528-11-1.482 13.246-11.312 4.087 11.017 6.542.623 13.567 8.143-9.42 11.61 4.495-5.82-12.272 6.657-10.948zM386.335 65.693l-2.145-5.23 3.673-4.328-5.66.428-2.97-4.81-1.352 5.524-5.53 1.406 4.794 2.988-.4 5.637 4.388-3.65 5.203 2.036zM323.27 80.362l1.243-5.515 5.49-1.438-4.88-2.896.324-5.645-4.275 3.75-5.34-2.022 2.216 5.198-3.562 4.386 5.69-.472 3.094 4.652zm-3.703-8.42l-1.357-3.203 3.237 1.257 2.59-2.246-.15 3.46 2.966 1.756-3.336.87-.808 3.368-1.872-2.874-3.46.318 2.19-2.706zM389.802 81.33c-4.972 1.06-8.154 5.964-7.093 10.935 1.06 4.97 5.965 8.153 10.938 7.092 4.972-1.06 8.154-5.965 7.093-10.936-1.06-4.97-5.965-8.152-10.938-7.09zm3.448 16.238c-3.978.86-7.89-1.724-8.75-5.7-.863-3.978 1.723-7.888 5.7-8.75 3.978-.862 7.89 1.723 8.75 5.7.863 3.977-1.723 7.888-5.7 8.75zm1.458-8.816c.73-.132 1.194-.862 1.06-1.657-.132-.73-.86-1.193-1.656-1.06-.73.132-1.194.86-1.06 1.657.13.795.86 1.26 1.656 1.06zm-6.364 1.392c.73-.132 1.193-.862 1.06-1.657-.132-.73-.86-1.193-1.657-1.06-.73.132-1.193.86-1.06 1.657.2.73.928 1.193 1.657 1.06zm4.442 5.17c2.12-.464 3.58-2.12 3.91-4.11l-9.214 1.99c1.127 1.656 3.182 2.584 5.304 2.12zM327.486 2.452c-4.972 1.06-8.154 5.966-7.093 10.937 1.06 4.97 5.966 8.152 10.938 7.09 4.973-1.06 8.156-5.964 7.095-10.935-1.06-4.972-5.967-8.153-10.94-7.093zm3.448 16.24c-3.978.86-7.89-1.724-8.75-5.7-.863-3.978 1.722-7.888 5.7-8.75 3.978-.862 7.89 1.723 8.75 5.7.863 3.977-1.723 7.888-5.7 8.75zm1.458-8.816c.73-.132 1.193-.862 1.06-1.657-.132-.73-.86-1.194-1.657-1.06-.73.13-1.193.86-1.06 1.656.132.795.862 1.26 1.657 1.06zm-6.364 1.392c.73-.133 1.193-.862 1.06-1.657-.132-.728-.86-1.192-1.657-1.06-.728.133-1.192.862-1.06 1.657.2.73.93 1.194 1.658 1.06zm4.442 5.17c2.12-.464 3.58-2.12 3.91-4.11l-9.214 1.99c1.127 1.656 3.182 2.584 5.304 2.12zM478.318 18.068c-3.447.73-5.635 4.11-4.906 7.49.73 3.38 4.11 5.634 7.49 4.905 3.45-.73 5.636-4.11 4.907-7.49-.73-3.38-4.045-5.634-7.492-4.905zm2.386 11.135c-2.718.597-5.436-1.193-6.032-3.91-.597-2.718 1.193-5.436 3.91-6.032 2.72-.596 5.437 1.194 6.034 3.91.596 2.72-1.127 5.503-3.912 6.033zm1.393-5.568c.53-.132.86-.596.73-1.126-.134-.532-.598-.863-1.128-.73-.532.132-.863.596-.73 1.126.132.53.596.796 1.127.73zm-4.442 0c.53-.132.862-.596.73-1.126-.133-.532-.598-.863-1.128-.73-.53.132-.862.596-.73 1.126.133.53.598.796 1.128.73zm2.453 4.044c1.458-.266 2.52-1.128 2.784-2.19l-6.497.996c.796.928 2.254 1.458 3.713 1.193zM451.007 43.163c-3.15-2.118-7.43-1.302-9.55 1.85-2.116 3.15-1.3 7.43 1.85 9.548 3.152 2.12 7.433 1.303 9.55-1.847 2.117-3.15 1.3-7.432-1.85-9.55zm-6.975 10.24c-2.55-1.687-3.193-5.12-1.462-7.622 1.73-2.5 5.12-3.19 7.62-1.46 2.5 1.733 3.193 5.12 1.462 7.62-1.638 2.504-5.07 3.147-7.62 1.462zm5.445-3.14c.464.29 1.122.207 1.41-.257.29-.464.208-1.122-.256-1.41-.462-.29-1.12-.208-1.41.255-.335.417-.252 1.075.257 1.412zm-3.36-3.482c.462.29 1.12.208 1.41-.255.29-.464.206-1.122-.257-1.41-.464-.29-1.122-.208-1.41.255-.29.464-.208 1.122.256 1.41zm-1.308 5.04c1.295.962 2.746 1.128 3.74.536l-5.692-4.272c-.07 1.264.655 2.777 1.95 3.737z" fill="#EFEFEF"/><path d="M362.843 93.47c-1.668-1.154-3.925-.725-5.033.99-1.154 1.668-.725 3.925.99 5.034 1.668 1.154 3.926.725 5.034-.99 1.154-1.668.724-3.926-.99-5.034zm-3.656 5.374c-1.344-.914-1.688-2.702-.774-4.045.914-1.345 2.702-1.688 4.045-.774 1.344.914 1.688 2.702.774 4.045-.914 1.345-2.7 1.688-4.045.774zm2.84-1.638c.233.145.562.104.754-.174.146-.232.105-.56-.173-.753-.232-.146-.56-.105-.753.173-.145.232-.058.61.174.753zm-1.75-1.812c.233.145.562.104.754-.174.146-.232.105-.56-.173-.753-.232-.145-.56-.104-.753.174-.193.28-.104.562.174.754zm-.7 2.613c.694.528 1.49.59 2.01.27l-3.007-2.256c-.06.703.35 1.507.996 1.987z" fill="#D4D4D4"/><path d="M411.468 37.872c-.663-1.392-.862-2.917-.53-4.375.928-3.778 5.237-5.965 9.612-4.838 4.375 1.06 7.094 5.036 6.165 8.814-.928 3.778-5.237 5.966-9.612 4.84-1.06-.266-2.055-.73-2.917-1.26-2.188-.266-4.044 0-5.304-1.326 1.326-.265 2.652-.265 2.586-1.856zM349.894 39.04c-.796-.596-1.326-1.392-1.59-2.386-.532-2.452 1.258-4.905 4.042-5.568 2.785-.662 5.503.796 6.1 3.248.53 2.453-1.26 4.905-4.044 5.568-.663.133-1.393.2-2.056.133-1.325.464-2.32 1.193-3.38.795.662-.53 1.392-.928.928-1.79zM436.667 9.06c.597-.73.995-1.657.93-2.65-.068-2.52-2.388-4.508-5.305-4.442-2.917.067-5.17 2.12-5.17 4.64 0 2.52 2.386 4.507 5.303 4.44.73 0 1.392-.132 1.988-.397 1.393.134 2.586.598 3.514-.065-.663-.33-1.458-.53-1.26-1.524zM509.662 105.323c.066-.067.066-.067 0 0 .066-.133.066-.133.066-.2.265-.728.53-1.39.795-2.054.796-1.525 1.724-2.586 2.785-3.646 1.06-1.193 2.187-2.387 3.182-4.242.398-.73.73-1.525.994-2.453.265-.73.53-1.393.862-2.056.796-1.524 1.724-2.585 2.784-3.645 1.06-1.194 2.188-2.387 3.183-4.243.397-.73.73-1.525.994-2.453.2-.596-.066-1.193-.53-1.524l-1.658-1.06-4.442-2.785c-.332-.198-.73-.265-1.127-.132-.33.132-.53.33-.73.596 0 .066-.065.132-.065.198-.265.73-.53 1.392-.862 2.055-.795 1.524-1.723 2.585-2.784 3.646-1.062 1.192-2.19 2.385-3.183 4.24-.398.73-.73 1.525-.995 2.453-.265.73-.53 1.392-.86 2.055-.797 1.524-1.725 2.585-2.786 3.645-1.06 1.193-2.187 2.387-3.182 4.242-.398.73-.73 1.525-.994 2.453-.2.596.066 1.193.53 1.524l4.574 2.85 1.46.928c.065 0 .065.067.13.067.797.397 1.526.132 1.858-.464zm-5.04-3.248c.93-2.983 2.322-4.44 3.714-5.965 1.458-1.59 2.983-3.182 4.044-6.43.928-2.983 2.32-4.44 3.712-5.965 1.46-1.525 2.917-3.116 3.978-6.297.33.2.596.398.862.53 0 .066-.067.066-.067.133-.928 2.983-2.32 4.442-3.712 5.966-1.06 1.127-2.122 2.32-3.05 4.11-.33.662-.663 1.458-.928 2.32-.928 2.982-2.32 4.44-3.712 5.965-1.06 1.128-2.122 2.32-3.05 4.11-.33.663-.596 1.392-.928 2.188-.265-.2-.597-.332-.862-.53-.066-.067-.066-.133 0-.133zm-1.258-3.447c1.723-3.446 4.176-4.44 5.9-7.887.33-.662.663-1.39.928-2.253.265-.862.597-1.59.928-2.254 1.724-3.446 4.177-4.44 5.9-7.887.332-.663.663-1.392.928-2.254l.995.597c0 .065-.067.065-.067.13-.928 2.984-2.32 4.442-3.712 5.967-1.06 1.127-2.12 2.32-3.05 4.11-.33.662-.662 1.457-.928 2.32-.928 2.982-2.32 4.44-3.712 5.965-1.06 1.126-2.12 2.32-3.05 4.11-.33.662-.596 1.39-.928 2.186-.33-.198-.596-.397-.994-.596.2-.862.53-1.59.862-2.254zM310.58 48.452h.2c.663-.132 1.326-.132 1.923-.132 1.525 0 2.718.33 3.977.73 1.326.397 2.785.794 4.64.794.73 0 1.526-.066 2.32-.198.664-.133 1.327-.2 1.924-.2 1.525 0 2.718.332 3.977.73 1.327.397 2.786.795 4.642.795.73 0 1.525-.065 2.32-.198.53-.066.928-.53.928-1.06l.133-1.724.398-4.64c0-.33-.132-.728-.33-.927-.2-.198-.465-.33-.796-.33h-.2c-.662.132-1.325.198-1.922.198-1.524 0-2.718-.33-3.977-.73-1.326-.397-2.785-.794-4.64-.794-.73 0-1.526.066-2.32.2-.664.13-1.327.197-1.924.197-1.523 0-2.717-.33-3.976-.728-1.326-.397-2.785-.795-4.64-.795-.73 0-1.526.066-2.32.2-.53.065-.93.53-.93 1.06l-.397 4.772-.133 1.523v.133c0 .596.53 1.126 1.127 1.126zm.532-5.302c2.718-.464 4.44.066 6.165.53 1.856.53 3.713 1.06 6.696.597 2.718-.464 4.375.066 6.165.53 1.79.53 3.646 1.06 6.563.596 0 .332-.065.597-.065.928h-.133c-2.718.465-4.44-.065-6.165-.53-1.326-.397-2.652-.794-4.442-.794-.663 0-1.392.066-2.254.2-2.717.463-4.374-.068-6.164-.532-1.326-.397-2.652-.795-4.442-.795-.663 0-1.326.065-2.12.198 0-.332.065-.597.065-.928h.132zm2.187-2.386c3.38 0 5.17 1.458 8.618 1.458.663 0 1.326-.066 2.12-.2.797-.132 1.46-.198 2.122-.198 3.38 0 5.17 1.458 8.62 1.458.662 0 1.325-.066 2.12-.198 0 .397-.066.73-.066.994h-.133c-2.717.464-4.44-.066-6.164-.53-1.326-.398-2.652-.796-4.442-.796-.663 0-1.392.066-2.254.2-2.718.463-4.375-.067-6.165-.53-1.326-.4-2.652-.797-4.442-.797-.663 0-1.326.067-2.12.2 0-.332.065-.664.065-.995.796 0 1.46-.066 2.12-.066zM259.432 2.76l.123.044c.45.04.86.19 1.23.325.942.342 1.582.88 2.243 1.488.703.623 1.487 1.275 2.636 1.693.45.165.963.29 1.494.36.45.043.88.138 1.248.272.944.344 1.584.882 2.245 1.49.704.622 1.488 1.274 2.636 1.692.452.164.963.29 1.495.36.35.066.732-.222.89-.654l.592-1.373 1.62-3.687c.1-.27.135-.624.07-.83-.064-.207-.188-.375-.393-.45l-.124-.044c-.45-.042-.88-.137-1.25-.27-.942-.345-1.582-.883-2.244-1.49-.702-.623-1.486-1.275-2.635-1.693-.45-.164-.963-.29-1.494-.36-.45-.042-.88-.137-1.25-.27-.942-.345-1.582-.883-2.243-1.49-.703-.623-1.487-1.275-2.636-1.693-.45-.164-.963-.29-1.494-.36-.348-.066-.73.222-.888.654L259.642.27l-.534 1.21-.04.108c-.176.486-.005 1.037.364 1.17zm1.9-4.198c1.818.234 2.727 1.054 3.656 1.82.99.85 1.983 1.7 3.966 1.993 1.82.235 2.687 1.04 3.657 1.82.95.835 1.943 1.685 3.885 1.964-.1.268-.218.47-.316.74l-.083-.03c-1.82-.235-2.73-1.055-3.658-1.82-.703-.623-1.405-1.245-2.513-1.648-.41-.15-.88-.26-1.453-.346-1.82-.234-2.687-1.04-3.657-1.82-.703-.622-1.405-1.245-2.513-1.648-.41-.15-.84-.244-1.37-.315.097-.27.217-.47.315-.74l.08.03zm2.06-1.45c2.09.76 2.767 2.352 4.9 3.128.41.15.84.244 1.37.316.532.07.962.166 1.372.315 2.092.763 2.767 2.353 4.9 3.13.41.148.84.244 1.37.315-.117.324-.256.58-.335.794l-.083-.03c-1.82-.235-2.728-1.055-3.657-1.82-.702-.623-1.405-1.245-2.512-1.648-.41-.15-.88-.26-1.453-.346-1.82-.234-2.688-1.04-3.658-1.82-.702-.622-1.404-1.244-2.512-1.647-.41-.15-.84-.246-1.37-.317.097-.27.236-.525.334-.795.492.18.92.275 1.332.424zM432.68 94.274c-.027-.075-.06-.015-.06-.015-.217-.12-.432-.237-.613-.415-.487-.387-.807-.94-1.128-1.496-.384-.57-.76-1.274-1.337-1.75-.243-.193-.46-.31-.737-.443-.215-.118-.43-.236-.61-.415-.488-.386-.808-.94-1.13-1.495-.382-.57-.758-1.274-1.335-1.75-.243-.192-.458-.31-.736-.443-.153-.103-.353.126-.4.458l-.275 1.106-.652 3.013c-.04.198-.054.47-.005.756.056.15.112.3.202.39 0 0 .028.075.063.014.215.118.43.236.61.415.488.386.81.94 1.13 1.495.382.57.76 1.273 1.336 1.75.243.192.458.31.736.443.215.118.43.236.612.414.486.387.807.94 1.127 1.495.382.57.76 1.274 1.336 1.75.243.193.458.31.736.443.153.104.354-.125.4-.458l.686-3.074.206-.984.034-.062c.09-.53-.016-.966-.197-1.144zm-1.896 4.683c-.668-.554-1.017-1.624-1.39-2.612-.37-1.17-.765-2.26-1.48-2.833-.67-.554-1.017-1.624-1.366-2.693-.348-1.07-.743-2.16-1.458-2.733.03-.266.06-.53.092-.796 0 0 .02.102.047.02.667.554 1.015 1.624 1.39 2.612.26.848.545 1.614.976 2.255.16.16.342.42.55.598.668.553 1.016 1.623 1.365 2.693.26.848.547 1.614.977 2.255.135.24.296.4.503.578-.12.045-.15.31-.206.657zm-1.334.063c-.8-1.16-1.078-3.122-1.85-4.362-.137-.24-.32-.5-.508-.577-.21-.177-.37-.336-.506-.576-.8-1.16-1.078-3.122-1.852-4.362-.135-.24-.318-.5-.506-.577.03-.265.088-.61.12-.876 0 0 .02.1.046.018.673.553 1.023 1.62 1.4 2.607.262.846.55 1.61.983 2.25.162.16.345.42.553.597.674.553 1.024 1.62 1.375 2.688.262.847.55 1.61.983 2.25.136.24.298.4.507.578-.03.264-.062.53-.12.876-.306-.034-.49-.294-.625-.534zM407.273 58.165c0 1.59.795 2.983 1.59 4.11l-2.386-1.06c-.265-.133-.596 0-.73.265-.13.265 0 .596.266.73l2.917 1.258c-2.254.265-4.375 1.193-4.44 1.26-.267.132-.4.463-.267.73.133.264.464.396.73.264.066 0 4.11-1.79 6.695-1.06h.2c-.995 2.783.065 5.766 2.518 6.892.796.332 2.785.995 5.304 1.658l1.392-3.116c.2-.397.597-.53.994-.397.2.065.332.264.398.396.066.2.066.398 0 .597l-1.326 2.916c5.834 1.457 13.193 2.783 13.988.86.597-1.325-2.187-4.042-5.635-6.694l-.993 2.254c-.2.398-.597.53-.995.398-.397-.2-.53-.597-.397-.995l1.06-2.452c0-.065.067-.065.067-.132-2.586-1.922-5.304-3.645-7.226-4.772l-1.79 4.043c-.2.397-.597.53-.995.397-.396-.2-.53-.597-.396-.994l1.79-4.11c0-.066.066-.066.066-.132-.265-.132-.53-.264-.73-.33-2.452-1.128-5.436.132-6.828 2.783l-.132-.132c-.067 0-3.58-2.386-3.646-5.567 0-.332-.266-.53-.53-.53-.332.066-.597.33-.53.662zM358.843-5.634c-.795.53-1.193 1.26-1.458 1.988l-.2-1.458c0-.2-.198-.265-.33-.265-.2 0-.266.2-.266.333l.264 1.79c-.795-.995-1.856-1.724-1.922-1.79-.133-.067-.332-.067-.464.066-.066.13-.066.33.066.463 0 0 2.122 1.458 2.52 2.916 0 .066 0 .066.066.066-1.658.397-2.785 1.79-2.52 3.314.067.464.332 1.657.796 3.05l1.923-.267c.264 0 .463.133.463.398 0 .134 0 .2-.067.333-.066.066-.132.132-.265.198l-1.79.267c1.062 3.247 2.653 7.158 3.78 6.96.795-.133 1.26-2.254 1.525-4.707l-1.392.2c-.266.065-.465-.134-.465-.4-.066-.264.133-.463.398-.463l1.46-.198h.065c.134-1.79.134-3.647.134-4.906l-2.52.33c-.265 0-.464-.132-.464-.397-.066-.265.133-.464.398-.464l2.52-.33h.066c0-.2 0-.332-.067-.465-.2-1.525-1.723-2.585-3.38-2.452v-.067s.066-2.453 1.59-3.447c.133-.067.2-.266.067-.464-.2-.2-.398-.267-.53-.134zM555.023 54.635c4.78-3.61 9.726.176 9.444 4.73-.12 2.184-1.174 3-1.78 4.784-.512 1.804-.688 3.4-.688 3.4s-1.28-2.172-3.275-2.488c-1.996-.316-3.134-.386-5.087-2.136-.933-.9-3.15-4.302.703-7.732-.038.01-.08.02-.125.024-.61.148-1.42.73-2.923 1.202-.78.253-1.834-.183-1.405-.998.83-1.3 4.73-.69 4.73-.69s-.633-.385-1.66-.526c-1.79-.365-3.217-1.27-3.063-2.15.246-.857 1.33-.752 1.778-.407.69.35 2.5 1.875 3.28 2.873l.07.112zm.106.17s-.036-.058-.015-.15c-.267-.926-1.545-3.723-1.384-5.465.255-2.347 2.75-2.108 2.91-.1.17 1.772-1.215 2.56-.88 4.85.015.147-.006.238-.062.273-.12.31-.4.485-.57.59zM586.405 26.456c6.54-2.712 8.52-12.26.193-16.448-8.292-4.244-11.868 1.728-12.47 3.696-1.174 3.878-.443 5.586.492 8.593.935 3.007-1.285 6.31-1.285 6.31s2.347-.88 5.186-1.294c2.91-.527 4.814.43 7.885-.857zM547.495 81.43l-4.544-1.287-.987-4.65-2.657 3.94-4.696-.506 2.92 3.74-1.927 4.353 4.438-1.636 3.503 3.18-.156-4.758 4.108-2.375zM526.13 68.432l1.242-5.516 5.49-1.438-4.88-2.895.324-5.645-4.275 3.75-5.338-2.02 2.215 5.197-3.562 4.387 5.69-.473 3.094 4.652zm-3.704-8.42l-1.357-3.204 3.236 1.26 2.59-2.248-.15 3.46 2.965 1.756-3.334.87-.808 3.367-1.87-2.874-3.46.317 2.188-2.705zM242.24 95.223l-6.442-7.872 4.043-9.374-9.51 3.713-7.643-6.714.582 10.215-8.78 5.33 9.822 2.618 2.274 9.907 5.63-8.588 10.024.766zm-16.038-4.076l-6.044-1.625 5.37-3.195-.316-6.162 4.737 4.047 5.773-2.26-2.46 5.692 3.88 4.875-6.148-.53-3.38 5.254-1.413-6.097zM522.62-2.087c-4.972 1.06-8.154 5.965-7.093 10.936 1.06 4.97 5.966 8.152 10.938 7.09 4.972-1.06 8.154-5.964 7.094-10.935-1.062-4.97-5.968-8.153-10.94-7.092zm3.447 16.24c-3.977.86-7.89-1.725-8.75-5.702-.862-3.975 1.723-7.886 5.7-8.748 3.98-.86 7.89 1.724 8.752 5.7.86 3.977-1.725 7.888-5.703 8.75zm1.46-8.817c.728-.132 1.192-.86 1.06-1.657-.133-.73-.862-1.194-1.658-1.06-.73.13-1.194.86-1.06 1.656.13.795.86 1.26 1.656 1.06zm-6.365 1.392c.73-.132 1.193-.862 1.06-1.657-.132-.728-.86-1.192-1.657-1.06-.73.133-1.193.862-1.06 1.658.198.73.927 1.193 1.657 1.06zm4.44 5.17c2.123-.464 3.58-2.12 3.913-4.11L520.3 9.78c1.127 1.656 3.182 2.584 5.303 2.12zM565.702 81.54c-1.668-1.155-3.925-.726-5.033.99-1.155 1.667-.726 3.924.99 5.033 1.667 1.154 3.925.725 5.033-.99 1.154-1.668.724-3.925-.99-5.034zm-3.656 5.373c-1.344-.914-1.688-2.702-.774-4.045.914-1.343 2.702-1.687 4.045-.773 1.344.914 1.688 2.702.774 4.045-.913 1.344-2.7 1.688-4.044.773zm2.84-1.638c.233.145.562.104.754-.174.145-.23.104-.56-.174-.752-.232-.145-.56-.104-.753.174-.145.232-.058.61.174.753zm-1.75-1.812c.233.145.562.104.754-.174.145-.233.104-.562-.174-.754-.232-.145-.56-.104-.753.174-.193.278-.104.56.174.753zm-.7 2.613c.693.528 1.49.59 2.01.27l-3.007-2.256c-.06.702.347 1.506.995 1.986zM552.753 27.11c-.796-.597-1.326-1.392-1.59-2.387-.532-2.452 1.258-4.905 4.042-5.567 2.785-.663 5.503.795 6.1 3.247.53 2.453-1.26 4.905-4.044 5.568-.662.134-1.392.2-2.055.134-1.325.464-2.32 1.193-3.38.795.662-.53 1.392-.93.928-1.79zM504.822 37.184h.2c.662-.132 1.325-.132 1.922-.132 1.524 0 2.718.33 3.977.73 1.327.397 2.786.794 4.642.794.73 0 1.525-.066 2.32-.198.663-.133 1.326-.2 1.923-.2 1.524 0 2.718.332 3.977.73 1.326.397 2.785.795 4.64.795.73 0 1.526-.066 2.32-.2.53-.065.93-.53.93-1.06l.132-1.723.398-4.64c0-.33-.133-.728-.332-.927-.2-.2-.464-.332-.795-.332h-.2c-.662.134-1.325.2-1.922.2-1.525 0-2.718-.33-3.978-.73-1.325-.397-2.784-.794-4.64-.794-.73 0-1.525.066-2.32.2-.663.13-1.326.197-1.923.197-1.525 0-2.718-.33-3.978-.73-1.325-.396-2.784-.794-4.64-.794-.73 0-1.525.065-2.32.198-.53.066-.928.53-.928 1.06l-.398 4.773-.133 1.525v.133c0 .596.53 1.126 1.127 1.126zm.53-5.302c2.72-.464 4.442.066 6.166.53 1.856.53 3.712 1.06 6.696.597 2.718-.465 4.375.065 6.165.53 1.79.53 3.645 1.06 6.562.595 0 .332-.066.597-.066.928h-.133c-2.718.464-4.442-.066-6.165-.53-1.326-.398-2.652-.795-4.442-.795-.663 0-1.392.066-2.254.2-2.718.463-4.375-.068-6.165-.532-1.326-.397-2.652-.795-4.442-.795-.663 0-1.326.067-2.12.2 0-.332.065-.597.065-.928h.133zm2.188-2.386c3.38 0 5.17 1.458 8.618 1.458.663 0 1.326-.066 2.122-.2.795-.132 1.458-.198 2.12-.198 3.382 0 5.172 1.458 8.62 1.458.662 0 1.325-.066 2.12-.198 0 .397-.065.73-.065.994h-.133c-2.718.464-4.442-.066-6.165-.53-1.326-.398-2.652-.796-4.442-.796-.663 0-1.392.066-2.254.2-2.717.463-4.374-.067-6.164-.53-1.326-.4-2.652-.797-4.442-.797-.663 0-1.326.067-2.12.2 0-.332.065-.664.065-.995.794 0 1.457-.066 2.12-.066zM52.52 19.79c2.063.07 4.718.798 4.927 3.593.2 2.675-3.91 6.062-4.927 6.1-1.09.04-5.722-3.027-5.923-5.702-.2-2.693 2.228-3.646 4.25-3.91l-.064-.015c-.586-.128-1.537-.03-3.006-.25-.736-.118-1.437-.707-.683-1.023 1.296-.48 4.278 1.105 4.278 1.105s-.37-.417-1.17-.856c-1.296-.78-2.1-1.745-1.553-2.234.612-.433 1.422 0 1.653.325.44.408 1.292 1.71 1.5 2.534.06.24-.04.425.045.174.208-.605.333-2.46 1.242-3.403 1.285-1.253 3.26-.323 2.495.868-.685 1.07-2.192 1.057-2.947 2.506-.035.067-.056.146-.118.19zM144.43 63.712c2.635 1.003 5.572 3.314 3.85 7.883-1.647 4.374-9.415 8.03-10.766 7.653-1.447-.406-5.293-7.318-3.645-11.692 1.658-4.405 5.502-4.886 8.322-4.438-.024-.017-.047-.034-.072-.05-.67-.458-1.98-.71-3.735-1.7-.875-.503-1.367-1.75-.16-1.932 2.03-.21 4.782 3.616 4.782 3.616s-.182-.828-.91-1.876c-1.132-1.813-1.493-3.705-.43-4.253 1.107-.43 1.853.614 1.922 1.234.28.842.462 3.298.145 4.708-.093.413-.357.662-.066.298.7-.88 2.19-3.8 4.044-4.92 2.568-1.454 4.476.887 2.63 2.468-1.655 1.418-3.61.75-5.626 2.747-.094.094-.177.21-.29.255zM387.397 28.5c2.636 1.004 5.573 3.315 3.85 7.884-1.646 4.374-9.415 8.032-10.766 7.653-1.445-.405-5.29-7.317-3.644-11.69 1.66-4.407 5.503-4.887 8.324-4.44l-.073-.05c-.67-.457-1.98-.71-3.734-1.7-.875-.503-1.368-1.75-.16-1.932 2.03-.21 4.782 3.616 4.782 3.616s-.183-.826-.912-1.874c-1.13-1.813-1.492-3.706-.428-4.253 1.106-.43 1.853.613 1.922 1.233.28.842.462 3.298.146 4.71-.093.41-.358.66-.067.297.702-.88 2.19-3.8 4.045-4.92 2.57-1.455 4.477.886 2.63 2.467-1.653 1.417-3.607.75-5.624 2.747-.095.093-.178.21-.29.254zM470.146 3.34c-1.954.744-4.132 2.458-2.856 5.846 1.222 3.243 6.983 5.955 7.984 5.675 1.073-.3 3.925-5.426 2.704-8.67-1.23-3.266-4.08-3.622-6.173-3.29l.054-.038c.497-.34 1.467-.526 2.768-1.26.65-.373 1.014-1.297.12-1.432-1.506-.156-3.547 2.68-3.547 2.68s.136-.613.677-1.39c.84-1.344 1.106-2.748.318-3.154-.82-.32-1.374.455-1.426.915-.21.625-.343 2.447-.11 3.492.07.306.266.49.05.22-.52-.652-1.623-2.817-3-3.646-1.903-1.08-3.318.657-1.95 1.83 1.227 1.05 2.676.554 4.172 2.035.07.07.132.157.214.19zM355.108 69.478c2.024-.348 4.864-.096 6.1 2.93 1.185 2.897-1.54 7.465-2.51 7.715-1.04.27-6.662-2.143-7.847-5.04-1.19-2.918.808-4.466 2.667-5.172l-.067-.002c-.614-.02-1.5.284-3.003.344-.756.023-1.653-.48-1.04-.982 1.077-.795 4.55.33 4.55.33s-.51-.38-1.447-.697c-1.546-.592-2.683-1.485-2.333-2.135.433-.602 1.378-.294 1.722.016.575.356 1.883 1.61 2.39 2.473.148.252.117.475.107.182-.022-.71-.588-2.772-.057-3.995.78-1.64 3.036-1.027 2.737.44-.268 1.314-1.73 1.612-1.925 3.36-.01.08 0 .172-.044.233z" fill="#EFEFEF"/></g></svg>