<?xml version="1.0" encoding="UTF-8" standalone="no"?>
<svg width="18px" height="12px" viewBox="0 0 18 12" version="1.1" xmlns="http://www.w3.org/2000/svg" xmlns:xlink="http://www.w3.org/1999/xlink" xmlns:sketch="http://www.bohemiancoding.com/sketch/ns">
    <!-- Generator: Sketch 3.4.3 (16618) - http://www.bohemiancoding.com/sketch -->
    <title>Shape</title>
    <desc>Created with Sketch.</desc>
    <defs></defs>
    <g id="Page-1" stroke="none" stroke-width="1" fill="none" fill-rule="evenodd" sketch:type="MSPage">
        <g id="feed-copy-11" sketch:type="MSArtboardGroup" transform="translate(-1051.000000, -86.000000)" fill="#5C5C5D">
            <g id="Mask-+-icon__logo-modal" sketch:type="MSLayerGroup" transform="translate(1050.000000, 83.000000)">
                <path d="M3.4,5.8 C3.4,4.28 4.68,3 6.2,3 C7.72,3 9,4.28 9,5.8 C9,7.32 7.72,8.6 6.2,8.6 C4.68,8.6 3.4,7.32 3.4,5.8 L3.4,5.8 Z M6.2,10.2 C2.28,10.2 1,13.4 1,13.4 L1,15 L11.4,15 L11.4,13.4 C11.4,13.4 10.12,10.2 6.2,10.2 L6.2,10.2 Z M13.4,8.6 C14.9463973,8.6 16.2,7.3463973 16.2,5.8 C16.2,4.2536027 14.9463973,3 13.4,3 C11.8536027,3 10.6,4.2536027 10.6,5.8 C10.6,7.3463973 11.8536027,8.6 13.4,8.6 Z M13.4,10.2 C12.2,10.2 11.24,10.52 10.52,10.92 C11.64,11.88 12.12,13 12.2,13.08 L12.28,13.24 L12.28,15 L18.68,15 L18.68,13.4 C18.6,13.4 17.32,10.2 13.4,10.2 L13.4,10.2 Z" id="Shape" sketch:type="MSShapeGroup"></path>
            </g>
        </g>
    </g>
</svg>